<svg width="37" height="37" viewBox="0 0 37 37" fill="none" xmlns="http://www.w3.org/2000/svg">
<rect width="36.5956" height="36.5956" fill="rgba(255,240,182,0)"/>
<rect y="4.0437" width="18.3989" height="21.4317" fill="#D75747"/>
<path d="M13.473 14.2765C13.473 17.0527 15.6227 19.3087 18.3989 19.3087V9.30054C15.6227 9.30054 13.473 11.5002 13.473 14.2765Z" fill="#FFF0B6"/>
<path d="M2.21179 17.7952H8.24404L10.6569 25.5365H2.21179V17.7952Z" fill="#FFF0B6"/>
<rect x="13.6733" y="23.928" width="2.88744" height="1.71871" fill="#FFF0B6"/>
<rect x="2.224" y="10.1093" width="6.06557" height="6.06557" fill="#FFF0B6"/>
<rect width="18.3989" height="2.42623" fill="#D75747"/>
<rect x="36.5957" y="32.5519" width="18.1967" height="21.4317" transform="rotate(180 36.5957 32.5519)" fill="#D75747"/>
<path d="M23.3248 22.2879C23.3248 19.5117 21.1752 17.2557 18.3989 17.2557V27.2639C21.1752 27.2639 23.3248 25.0642 23.3248 22.2879Z" fill="#FFF0B6"/>
<path d="M34.5859 18.7693H28.5537L26.1408 11.0279H34.5859V18.7693Z" fill="#FFF0B6"/>
<rect x="23.1245" y="12.6366" width="2.88744" height="1.71871" transform="rotate(180 23.1245 12.6366)" fill="#FFF0B6"/>
<rect x="34.5737" y="26.4551" width="6.06557" height="6.06557" transform="rotate(180 34.5737 26.4551)" fill="#FFF0B6"/>
<path d="M36.5957 36.5956H18.399V34.1694H36.5957V36.5956Z" fill="#D75747"/>
</svg>
