<svg width="482" height="405" viewBox="0 0 482 405" fill="none" xmlns="http://www.w3.org/2000/svg">
<path d="M12.701 122.57C14.4691 126.386 16.749 130.48 19.5407 134.854C22.4255 139.134 25.7756 142.671 29.5909 145.462C33.4993 148.161 37.4077 149.51 41.3161 149.51C45.5037 149.51 48.8072 148.487 51.2267 146.439C53.7393 144.299 54.9956 141.461 54.9956 137.925C54.9956 134.947 54.158 132.388 52.483 130.247C50.808 128.107 48.9468 126.339 46.8996 124.943C44.9454 123.454 40.7113 120.895 34.1972 117.266C27.7763 113.637 23.3095 110.752 20.797 108.612C18.3775 106.471 16.3768 104.331 14.7948 102.191C13.2128 100.05 11.91 97.5844 10.8864 94.7926C9.95581 92.0009 9.49053 88.8835 9.49053 85.4404C9.49053 80.4153 10.8864 75.7159 13.6781 71.3422C16.5629 66.8755 20.6109 63.5254 25.8221 61.292C31.1264 58.9656 36.5702 57.8024 42.1536 57.8024C47.4579 57.8024 52.483 58.4538 57.2289 59.7566C62.0679 60.9663 66.209 62.6413 69.6521 64.7817V88.0925H67.5583C66.1624 84.4633 64.4874 81.0202 62.5332 77.7632C60.6721 74.4131 58.5783 71.6214 56.2518 69.388C53.9254 67.1546 51.4594 65.4796 48.8538 64.3629C46.3412 63.1532 43.7821 62.5483 41.1765 62.5483C37.4543 62.5483 34.4764 63.5719 32.243 65.6192C30.1027 67.6664 29.0326 70.272 29.0326 73.436C29.0326 75.7624 29.6374 77.9027 30.8472 79.8569C32.15 81.8112 33.732 83.5327 35.5931 85.0216C37.5473 86.5105 39.4085 87.8134 41.1765 88.93C42.9446 89.9537 45.0384 91.1634 47.4579 92.5593C49.8774 93.8621 51.4594 94.7461 52.2038 95.2114C60.3929 99.8643 66.2555 104.471 69.7917 109.03C73.4209 113.59 75.2355 118.894 75.2355 124.943C75.2355 129.224 74.4445 133.179 72.8626 136.808C71.3736 140.437 69.1403 143.555 66.1624 146.16C63.1846 148.766 59.4623 150.813 54.9956 152.302C50.5288 153.698 45.5502 154.396 40.0599 154.396C34.2903 154.396 28.7999 153.651 23.5887 152.162C18.4706 150.674 14.1434 148.905 10.6072 146.858V122.57H12.701ZM122.385 134.993V117.824C119.966 117.824 117.546 118.29 115.127 119.22C112.707 120.151 110.799 121.826 109.404 124.245C108.008 126.665 107.31 129.55 107.31 132.9C107.31 135.971 108.054 138.53 109.543 140.577C111.125 142.624 113.265 143.648 115.964 143.648C118.663 143.648 120.943 142.624 122.804 140.577C122.525 138.902 122.385 137.041 122.385 134.993ZM152.815 145.183H155.188V147.696C152.768 149.836 150.349 151.418 147.929 152.442C145.51 153.465 142.346 153.977 138.437 153.977C135.46 153.977 132.668 153.233 130.062 151.744C127.55 150.255 125.596 147.975 124.2 144.904C121.873 147.603 118.895 149.79 115.266 151.465C111.73 153.14 107.775 153.977 103.401 153.977C97.4457 153.977 92.7463 152.209 89.3032 148.673C85.9531 145.137 84.2781 140.763 84.2781 135.552C84.2781 130.899 85.5343 126.897 88.0469 123.547C90.6525 120.197 94.2817 117.592 98.9346 115.731C103.681 113.776 109.124 112.799 115.266 112.799C117.965 112.799 120.338 112.939 122.385 113.218V106.239C122.385 101.772 122.339 98.2823 122.245 95.7697C122.152 93.1641 121.78 91.1169 121.129 89.628C120.477 88.139 119.593 86.9758 118.477 86.1383C117.36 85.3008 115.638 84.882 113.312 84.882C111.544 84.882 109.776 85.3008 108.008 86.1383C106.333 86.8828 105.076 87.8599 104.239 89.0696C105.262 90.0002 106.1 91.2099 106.751 92.6989C107.403 94.1878 107.729 95.6302 107.729 97.026C107.729 100.004 106.751 102.563 104.797 104.703C102.936 106.751 100.47 107.774 97.3992 107.774C94.5144 107.774 92.0484 106.797 90.0011 104.843C88.0469 102.796 87.0698 100.33 87.0698 97.4448C87.0698 95.5836 87.5351 93.676 88.4657 91.7218C89.3962 89.6745 91.1178 87.7203 93.6303 85.8591C96.2359 83.998 99.4464 82.6487 103.262 81.8111C107.077 80.9736 110.66 80.5549 114.01 80.5549C120.524 80.5549 126.107 81.3459 130.76 82.9278C135.506 84.4168 139.135 87.1154 141.648 91.0238C144.16 94.8392 145.417 101.027 145.417 109.589V138.204C145.417 142.857 147.883 145.183 152.815 145.183Z" fill="#D75747"/>
<path d="M272.562 75.2506H219.938V79.9965C219.938 86.2779 219.659 92.5593 219.659 92.5593C222.311 89.9071 226.359 87.6738 232.082 87.6738C239.759 87.6738 246.739 92.8384 252.601 100.097C256.928 105.541 260.697 112.66 260.697 120.058C260.697 133.737 251.764 141.275 240.457 141.275C238.782 141.275 237.247 141.275 235.711 141.135L227.615 126.199L228.313 124.943C229.709 125.222 231.105 125.362 232.361 125.362C239.899 125.362 245.622 120.895 245.622 113.497C245.622 108.612 242.272 103.866 235.572 103.866C226.499 103.866 219.659 111.543 219.659 122.012V153.698H216.449L209.888 148.254L201.373 142.81C201.373 142.81 202.211 133.318 202.49 122.431C199.838 123.408 197.186 123.966 194.394 123.966C186.856 123.966 182.25 120.895 177.085 117.266C168.989 111.543 162.708 105.96 162.708 95.9093V75.2506H155.729L149.308 66.1775L145.539 61.8504V59.617H262.372L268.793 68.6901L272.562 73.0172V75.2506ZM186.577 109.868C192.3 109.868 198.302 106.518 202.071 102.889V75.2506H181.133V103.307C181.133 108.193 183.227 109.868 186.577 109.868ZM262.326 75.2506L255.906 66.1775L252.137 61.8504V59.617H310.763L317.184 68.6901L320.953 73.0172V75.2506H302.108V103.307C302.108 109.03 299.875 112.939 290.802 120.337C289.685 121.174 289.127 121.593 289.127 122.849C289.127 125.502 301.69 139.321 312.298 150.208L302.108 155.931L282.427 131.923C272.516 119.918 267.77 112.101 265.956 108.332L272.237 100.934C274.47 101.632 277.123 102.191 278.658 102.191C282.566 102.191 283.544 99.9573 283.544 98.0031V75.2506H262.326Z" fill="#D75747"/>
<path d="M23.2564 230.766L15.5512 219.878L11.0286 214.686V212.006H133.306L141.011 222.894L145.534 228.086V230.766H122.418V324.903H118.566L110.861 318.873L100.14 312.508C100.14 312.508 101.145 299.275 101.145 281.352C97.6278 282.357 93.9427 283.195 89.4201 283.195C79.7049 283.195 72.1673 279.342 66.9747 275.49C64.7971 278.17 61.7821 281.185 57.2595 284.87C55.9195 285.875 55.2495 286.377 55.2495 287.885C55.2495 291.067 69.3197 306.813 82.05 319.878L69.9897 326.745L47.3768 298.772C35.4841 284.367 29.789 274.987 27.6114 270.464L35.1491 261.587C37.8291 262.424 41.0117 263.094 42.8542 263.094C47.5443 263.094 48.7168 260.414 48.7168 258.069V230.766H23.2564ZM83.725 265.104C90.2576 265.104 94.2777 264.099 100.14 261.754V230.766H70.8273V263.764C74.8473 264.769 78.5324 265.104 83.725 265.104Z" fill="#D75747"/>
<path d="M184.935 302.458V281.855C182.031 281.855 179.128 282.413 176.225 283.53C173.321 284.646 171.032 286.656 169.357 289.56C167.682 292.463 166.844 295.925 166.844 299.945C166.844 303.63 167.738 306.701 169.525 309.158C171.423 311.614 173.991 312.843 177.23 312.843C180.468 312.843 183.204 311.614 185.437 309.158C185.102 307.148 184.935 304.914 184.935 302.458ZM221.451 314.685H224.298V317.7C221.395 320.269 218.491 322.167 215.588 323.395C212.685 324.624 208.888 325.238 204.198 325.238C200.624 325.238 197.274 324.345 194.147 322.558C191.132 320.771 188.787 318.035 187.112 314.35C184.321 317.589 180.747 320.213 176.392 322.223C172.149 324.233 167.403 325.238 162.154 325.238C155.008 325.238 149.368 323.116 145.237 318.873C141.217 314.629 139.206 309.381 139.206 303.128C139.206 297.544 140.714 292.742 143.729 288.722C146.856 284.702 151.211 281.575 156.794 279.342C162.489 276.997 169.022 275.825 176.392 275.825C179.631 275.825 182.478 275.992 184.935 276.327V267.952C184.935 262.592 184.879 258.404 184.767 255.389C184.656 252.262 184.209 249.806 183.427 248.019C182.646 246.232 181.585 244.836 180.245 243.831C178.905 242.826 176.839 242.324 174.047 242.324C171.925 242.324 169.804 242.826 167.682 243.831C165.672 244.725 164.164 245.897 163.159 247.349C164.388 248.466 165.393 249.917 166.174 251.704C166.956 253.491 167.347 255.222 167.347 256.897C167.347 260.47 166.174 263.541 163.829 266.109C161.596 268.566 158.637 269.794 154.952 269.794C151.49 269.794 148.531 268.622 146.074 266.277C143.729 263.82 142.557 260.861 142.557 257.399C142.557 255.166 143.115 252.877 144.232 250.532C145.348 248.075 147.414 245.73 150.429 243.496C153.556 241.263 157.408 239.644 161.987 238.639C166.565 237.634 170.865 237.131 174.885 237.131C182.701 237.131 189.402 238.08 194.985 239.979C200.68 241.766 205.035 245.004 208.05 249.694C211.065 254.272 212.573 261.698 212.573 271.972V306.31C212.573 311.894 215.532 314.685 221.451 314.685ZM289.268 309.325L290.776 311.335C287.537 315.467 283.35 318.873 278.213 321.553C273.188 324.233 268.051 325.573 262.803 325.573C255.209 325.573 249.626 323.284 246.053 318.705C242.479 314.127 240.692 307.203 240.692 297.935V245.674H230.14V241.151C233.043 240.146 236.505 238.36 240.525 235.791C244.545 233.223 248.621 229.705 252.753 225.239C256.884 220.772 260.179 216.082 262.635 211.168H268.33V237.466L287.091 235.624L285.583 245.674H268.33V294.585C268.33 306.087 271.904 311.838 279.051 311.838C281.731 311.838 285.137 311 289.268 309.325ZM334.089 258.069V301.788C334.089 311.391 336.545 317.979 341.459 321.553V324.065H298.243V321.553C303.715 318.091 306.451 311.503 306.451 301.788V223.731C306.451 220.381 305.669 217.478 304.105 215.021C302.654 212.564 300.979 210.889 299.08 209.996V207.483L334.089 196.931V254.049C336.099 251.369 338.723 248.689 341.961 246.009C345.311 243.217 349.108 241.096 353.351 239.644C357.706 238.08 361.727 237.299 365.412 237.299C372.67 237.299 378.198 239.421 381.994 243.664C385.791 247.907 387.69 255.668 387.69 266.947V301.788C387.69 310.944 390.425 317.533 395.897 321.553V324.065H352.681V321.553C357.595 318.426 360.052 311.838 360.052 301.788V268.789C360.052 265.104 359.326 262.201 357.874 260.079C356.422 257.846 354.636 256.394 352.514 255.724C350.504 255.054 348.605 254.719 346.819 254.719C343.692 254.719 339.449 255.836 334.089 258.069ZM443.522 237.299V301.788C443.522 305.696 444.136 309.437 445.364 313.01C446.704 316.584 448.826 319.431 451.729 321.553V324.065H407.676V321.553C413.148 318.091 415.884 311.503 415.884 301.788V264.099C415.884 260.749 415.102 257.846 413.539 255.389C412.087 252.932 410.412 251.257 408.514 250.364V247.852L443.522 237.299ZM412.701 212.341C412.701 210.331 413.204 208.042 414.209 205.473C415.325 202.905 417.224 200.727 419.904 198.941C422.584 197.042 425.543 196.093 428.781 196.093C433.248 196.093 437.045 197.712 440.172 200.951C443.41 204.077 445.029 207.874 445.029 212.341C445.029 214.351 444.471 216.64 443.354 219.208C442.349 221.665 440.451 223.843 437.659 225.741C434.979 227.528 432.02 228.421 428.781 228.421C426.771 228.421 424.482 227.919 421.914 226.914C419.457 225.797 417.28 223.899 415.381 221.219C413.594 218.538 412.701 215.579 412.701 212.341Z" fill="#D75747"/>
</svg>
